<svg version="1.0" xmlns="http://www.w3.org/2000/svg" width="240.726675ptpx" height="320.967636ptpx" viewBox="0 0 240.726675 320.967636" preserveAspectRatio="xMidYMid meet" transform="rotate(0) scale(1, 1)">
<metadata>
Created by potrace 1.12, written by Peter Selinger 2001-2015
</metadata>
<g transform="translate(-121.336043,362.440795) scale(0.100000,-0.100000)" fill="#eb8766" stroke="none">
<path d="M2179 3620 c-131 -20 -273 -86 -392 -180 -306 -241 -492 -569 -552&#10;-970 -51 -335 -11 -686 111 -1000 160 -408 462 -750 806 -909 110 -51 282&#10;-108 387 -129 127 -24 414 -23 501 2 218 63 441 200 511 312 41 68 70 174 70&#10;264 0 96 -6 121 -47 205 -29 58 -94 122 -175 173 -66 41 -214 90 -360 121 -80&#10;16 -166 38 -190 48 -131 52 -270 170 -326 278 -87 168 -115 355 -78 522 28&#10;127 102 285 181 388 89 117 125 200 144 334 29 198 -61 396 -217 478 -96 51&#10;-266 79 -374 63z m147 -1002 c-8 -24 -28 -101 -43 -173 -22 -104 -27 -154 -26&#10;-250 3 -370 160 -629 481 -790 121 -60 107 -72 -32 -26 -125 42 -217 100 -321&#10;205 -110 110 -161 202 -201 356 -24 93 -26 115 -21 215 9 160 28 228 115 402&#10;57 114 77 140 48 61z"/>
</g>
</svg>