<svg version="1.0" xmlns="http://www.w3.org/2000/svg" width="327.289608ptpx" height="286.251467ptpx" viewBox="0 0 327.289608 286.251467" preserveAspectRatio="xMidYMid meet" transform="rotate(0) scale(1, 1)">
<metadata>
Created by potrace 1.12, written by Peter Selinger 2001-2015
</metadata>
<g transform="translate(-140.500000,373.409728) scale(0.100000,-0.100000)" fill="#FF6B6B" stroke="none">
<path d="M4300 3729 c-120 -23 -263 -135 -327 -255 -56 -104 -77 -201 -78&#10;-349 0 -110 4 -141 23 -199 35 -104 75 -177 133 -240 65 -72 121 -110 204&#10;-141 105 -40 148 -47 219 -34 177 30 255 161 169 283 -21 30 -52 53 -116 87&#10;-105 55 -139 85 -167 152 -17 39 -21 65 -18 116 4 86 31 137 119 228 78 80 99&#10;121 99 191 0 63 -30 108 -90 138 -55 27 -110 34 -170 23z"/>
<path d="M1925 3711 c-103 -37 -166 -77 -247 -157 -140 -138 -229 -342 -198&#10;-454 16 -58 72 -113 131 -128 24 -6 96 -14 160 -19 145 -11 169 -24 169 -87 0&#10;-46 -12 -62 -67 -90 -41 -21 -156 -21 -213 -1 -100 35 -179 10 -228 -73 -22&#10;-39 -27 -59 -27 -117 0 -92 24 -133 101 -171 49 -24 62 -26 137 -22 211 13&#10;457 149 566 315 49 74 85 200 79 277 -14 172 -102 245 -327 271 -88 10 -118&#10;18 -134 33 -26 26 -17 65 25 104 26 25 38 28 92 28 34 0 84 -7 110 -16 61 -21&#10;104 -12 144 29 94 97 80 237 -28 279 -61 23 -180 23 -245 -1z"/>
<path d="M2415 3694 c-21 -8 -50 -24 -63 -37 -23 -21 -24 -26 -19 -127 3 -58&#10;11 -168 18 -245 6 -80 9 -225 6 -336 -5 -234 -1 -252 65 -269 51 -14 131 -7&#10;165 15 42 28 45 54 32 273 -16 281 -7 362 46 416 40 40 96 3 114 -74 14 -59&#10;14 -217 0 -397 -10 -129 -9 -149 6 -188 25 -66 98 -115 171 -115 68 0 69 3 83&#10;331 11 257 10 306 -3 394 -24 158 -58 231 -136 294 -52 41 -84 53 -151 53 -57&#10;0 -96 -14 -138 -51 -32 -28 -38 -27 -45 14 -12 62 -67 80 -151 49z"/>
<path d="M3353 3686 c-115 -28 -223 -108 -236 -173 -7 -38 19 -115 47 -142 21&#10;-20 33 -23 74 -19 29 3 63 14 82 28 38 27 117 38 148 21 29 -15 54 -66 50 -99&#10;-3 -22 -12 -29 -65 -48 -166 -60 -269 -141 -321 -253 -20 -43 -26 -76 -30&#10;-152 -7 -156 23 -245 111 -326 54 -50 103 -67 185 -66 74 1 154 36 209 91 30&#10;29 38 33 52 23 88 -64 202 -50 259 33 44 65 24 142 -52 197 -25 17 -48 39 -51&#10;48 -4 9 -11 99 -16 201 -10 225 -15 271 -41 380 -24 102 -44 143 -95 192 -77&#10;74 -180 95 -310 64z m191 -677 c11 -56 6 -149 -9 -178 -44 -86 -136 -107 -170&#10;-40 -23 44 -19 96 12 138 27 38 125 111 148 111 7 0 15 -14 19 -31z"/>
<path d="M2510 2583 c-272 -28 -487 -125 -622 -280 -206 -239 -220 -617 -35&#10;-952 89 -162 255 -316 422 -392 202 -91 457 -75 615 40 l44 32 55 -54 c31 -30&#10;74 -64 96 -77 54 -30 141 -38 187 -16 60 29 115 83 133 131 16 41 16 47 2 69&#10;-11 16 -39 32 -82 46 -67 22 -155 83 -175 120 -9 17 -5 36 24 103 107 253 125&#10;550 46 786 -42 124 -73 175 -159 261 -100 100 -209 154 -350 175 -93 14 -128&#10;16 -201 8z m181 -460 c87 -47 158 -152 180 -265 13 -66 13 -278 0 -291 -6 -6&#10;-23 1 -46 19 -75 57 -192 40 -242 -35 -52 -78 -39 -129 47 -182 28 -17 50 -35&#10;50 -40 0 -22 -67 -44 -135 -43 -60 0 -82 5 -145 36 -129 61 -191 131 -247 276&#10;-21 55 -26 85 -27 167 -1 96 1 104 33 168 99 196 355 287 532 190z"/>
<path d="M3905 2463 c-141 -20 -247 -72 -340 -167 -154 -154 -228 -375 -227&#10;-671 1 -182 16 -260 76 -391 47 -100 146 -201 232 -235 87 -34 234 -33 322 3&#10;98 40 167 87 249 167 115 115 167 201 217 359 34 108 41 161 40 312 -1 211&#10;-52 367 -157 478 -58 61 -109 93 -188 120 -56 20 -172 32 -224 25z m92 -465&#10;c30 -15 70 -93 78 -153 15 -117 -46 -297 -125 -369 -35 -31 -46 -36 -91 -36&#10;-44 0 -55 4 -84 33 -18 18 -38 51 -44 72 -19 70 -13 186 13 270 53 167 147&#10;235 253 183z"/>
</g>
</svg>